# xmcd
#
# Track frame offsets:
#	150
#	17357
#	39140
#	55591
#	74490
#	100033
#	113096
#	134751
#	152830
#	171245
#	180000
#
# Disc length: 2757 seconds
#
# Revision: 0
# Processed by: cddbd v1.5.2PL0 Copyright (c) Steve Scherf et al.
# Submitted via: audiograbber 1.83.01
#
DISCID=800ac30b
DTITLE=Yellotone - Executive Timber
DYEAR=2007
DGENRE=Lo-Fi
TTITLE0=Legions
TTITLE1=Hoons Under The Fuselage
TTITLE2=Rye Road
TTITLE3=Built To Laszt
TTITLE4=Gang Mentals
TTITLE5=I Saw You Running
TTITLE6=38 Orders
TTITLE7=Rons Lost His Mind
TTITLE8=Idols
TTITLE9=The Brain
TTITLE10=Clang Flans
EXTD=
EXTT0=
EXTT1=
EXTT2=
EXTT3=
EXTT4=
EXTT5=
EXTT6=
EXTT7=
EXTT8=
EXTT9=
EXTT10=
PLAYORDER=
